PathFileType	4	(X/Y/Z)	C:\Users\°ÂÌØÂü\Desktop\20210112\bx_y_5_501-Unnamed.trc
DataRate	CameraRate	NumFrames	NumMarkers	Units	OrigDataRate	OrigDataStartFrame	OrigNumFrames
50.00	50.00	       9	0	mm	50.00	325	       519
Frame#	Time	
		

325	6.480	-876.02466	287.00125	725.40460	-848.19489	-64.68607	686.21991	-845.28693	284.82690	858.38464	-780.45398	220.08154	806.60907	-729.72125	70.06346	221.33513	-772.60095	-9.64370	792.73322	-867.74908	251.49094	615.80811	-397.70963	287.42999	1174.43494	-962.31860	93.41610	1081.23743	-851.05475	246.65497	558.41962	-871.41681	256.18872	479.19812	-785.34595	208.52876	533.52155	-367.77127	-30.64473	1170.22656	-720.23004	158.79567	223.80710	-777.47009	226.12585	200.50098	-882.57581	295.99649	144.46762	-676.42761	177.23039	163.19070	-597.02380	226.48344	173.50461	-667.58917	302.19537	157.18277	-629.26349	309.78925	160.08475	-562.12708	260.78809	164.54555	-528.18646	303.97672	146.17410	-176.01207	141.00336	1358.30359	-774.03003	12.11025	523.21252	-624.13879	-80.35365	157.84413	-563.20410	-39.00792	162.54755	-517.77277	-72.99162	142.49489	-605.66125	17.53396	166.80623	-677.75873	51.50844	163.59576	-798.79614	174.77986	182.16628	-778.64868	-5.37625	994.95251	-798.23767	50.11476	173.27002				-857.89429	-43.11496	466.44440	-774.11377	-13.72975	199.78687	-875.97748	-78.88188	141.21204	-666.31866	-70.29446	159.75056	-835.00482	-31.92009	553.91852										-842.03552	-71.14828	838.73303				-835.35504	-34.77229	600.70923	
326	6.500	-876.07343	286.95764	725.30664	-848.29517	-64.82526	685.97772	-845.22986	285.03741	858.29480	-780.33234	220.33064	806.60602	-729.86548	70.15605	221.24358	-772.61224	-9.54012	792.73926	-867.85590	251.63988	615.82190	-396.02078	287.43262	1169.89026	-961.58112	93.13108	1081.78735	-851.22351	246.27464	558.57104	-871.23621	255.77484	479.00977	-785.20471	208.41505	533.41022				-720.28235	158.47490	223.91130	-777.47162	226.30817	200.67332	-882.70227	295.86533	144.32236	-676.54034	177.29573	163.34538	-597.02380	226.48344	173.50461	-667.59296	302.27487	157.11295	-629.19562	309.69492	160.02725	-562.12708	260.78809	164.54555	-528.17047	304.04794	146.13823	-173.45435	141.30878	1351.86963	-774.03003	12.11025	523.21252	-624.10510	-80.31555	157.84920	-563.25201	-39.00290	162.46886	-518.03052	-72.88007	142.50052	-605.66125	17.53396	166.80623	-677.78680	51.73742	163.27002	-798.70178	174.77408	182.29964	-778.13470	-5.63211	994.73236	-798.09448	50.27838	173.26920				-857.93237	-43.01787	466.32101	-774.18195	-13.46985	200.09727	-875.99457	-78.94872	141.12155	-666.31866	-70.29446	159.75056	-834.86700	-31.89379	553.95160										-841.98358	-71.19386	838.77966				-835.07849	-35.03782	600.97937	
327	6.520	-876.07343	286.95764	725.30664	-848.15405	-65.13213	685.95044	-845.08630	285.00787	858.42267	-780.16333	220.11539	806.27985	-729.55450	70.00819	221.07655	-772.18872	-9.66519	792.71124	-867.55505	251.53664	615.89880	-394.44574	288.29935	1165.56165	-960.46100	92.55966	1082.34033	-851.11627	246.51276	558.60284	-871.32483	256.11804	479.17911	-785.16431	208.28082	533.25879	-363.94501	-29.74265	1161.38293	-720.35114	158.68848	223.70372	-777.30811	226.43761	200.80562	-882.69598	295.97830	144.47495	-676.50110	177.24492	163.37065	-597.09320	226.64952	173.71504	-667.42828	302.18500	157.09834	-629.25409	309.66251	159.94119	-562.22723	260.97253	164.30681	-528.20056	304.00763	146.36661	-171.00002	141.66565	1346.39209	-773.94568	12.19971	522.96021	-624.01807	-80.30096	157.86234	-563.25403	-39.10019	162.59872	-517.91315	-72.82935	142.51601	-605.60229	17.52445	166.88715	-677.74231	51.83422	163.09154	-798.75049	174.79816	182.23299	-777.79523	-5.67640	994.38715	-797.97638	50.37532	173.23582				-857.54462	-42.99367	466.48410	-774.00970	-13.46538	199.83484	-875.93359	-78.96604	141.13327	-666.31866	-70.29446	159.75056	-834.78717	-31.97887	554.06000										-841.75055	-71.28799	838.81445				-834.89288	-35.23745	601.02301	
328	6.540	-875.95740	287.04007	725.30292				-845.03186	285.06430	858.41663	-780.04431	219.85101	805.89856	-729.63849	70.13081	220.80336	-771.57263	-9.70030	792.70496	-867.39185	251.56865	615.83820	-393.10095	288.11969	1161.96973	-959.65326	92.55371	1082.47302	-850.78760	246.68661	558.83325	-871.14563	256.08801	479.30560	-785.17285	208.22566	533.09637	-361.86438	-29.15939	1157.76331	-720.38080	158.79515	223.56920	-777.54840	226.42931	200.23312	-882.66003	296.11053	144.51537	-676.50110	177.24492	163.37065	-597.19012	226.57640	173.65207	-667.57483	302.47513	157.05515	-629.25409	309.66251	159.94119	-562.34186	261.00235	164.35489	-528.10718	303.91144	146.23595	-168.42552	141.68398	1341.21533	-773.86957	12.05081	522.65814	-624.23944	-80.22506	157.85184	-563.13806	-38.89797	162.38391	-518.03052	-72.88007	142.50052	-605.63196	17.66794	166.88368	-677.72675	51.87004	163.29012	-798.83038	174.84222	181.96616	-776.96759	-5.78463	994.29041	-797.95868	50.30010	173.27809				-857.38910	-43.37410	466.57706	-773.94659	-13.66949	199.87721	-875.94739	-78.97127	141.10255	-666.25623	-70.28117	159.86169	-834.53931	-32.33774	554.14484										-841.49585	-71.61674	838.92218				-834.60101	-35.86161	601.38098	
329	6.560	-875.71692	287.21075	725.59088	-847.00793	-65.97765	686.23700	-844.57318	284.63428	858.33588	-779.62762	219.45706	805.79181	-729.29285	69.96329	220.93932	-771.18671	-9.99874	792.84772	-867.01263	251.48625	616.07843	-391.97205	288.05414	1157.84216	-958.50885	92.44476	1082.81580	-850.52478	246.46458	558.45819	-870.80469	256.22073	479.43207	-784.55914	207.82338	532.72125	-360.06882	-28.69422	1154.15149	-720.98132	159.04193	223.38167	-777.72015	226.20491	200.17329	-882.57581	295.99649	144.46762	-676.79718	177.38469	163.04483	-597.33936	226.69429	173.65863	-667.50360	302.37305	157.13690	-629.26349	309.78925	160.08475	-562.43103	260.90756	164.46323	-528.19867	304.06610	146.12004	-165.83849	142.16077	1337.07007	-773.79828	11.76994	522.59698	-623.93231	-80.33257	157.92297	-563.13232	-39.09560	162.61366	-517.95361	-72.76327	142.34431	-605.50916	17.72754	166.93298	-677.74823	51.82134	163.11530	-798.95325	174.87160	181.85927	-776.33228	-5.67415	993.41425	-797.97223	50.32318	173.29593				-856.66962	-43.76609	466.38406	-773.89777	-13.59073	199.80278	-876.08136	-78.91337	141.11794	-666.14868	-70.06461	159.72903	-834.10883	-32.60622	554.29486										-840.85675	-71.68711	839.06097				-833.96234	-36.30654	602.00079	
330	6.580	-875.10352	286.87833	725.43652				-844.30048	284.62766	858.58472	-779.39252	219.61185	805.65973	-729.63849	70.13081	220.80336	-770.67383	-10.34015	792.86066	-866.85748	251.37085	616.01007	-390.47498	288.81647	1154.56934	-957.51733	92.30439	1083.46777	-850.45721	246.83458	558.92975	-870.42999	256.22241	479.32571	-784.29895	207.84956	532.78619	-358.49283	-27.83024	1150.92944	-720.98132	159.04193	223.38167	-777.63501	226.42426	200.14246	-882.47778	296.06058	144.61819	-676.72021	177.26756	163.08463	-597.33936	226.69429	173.65863	-667.49615	302.38138	156.94296	-629.32196	309.75684	159.99869	-562.37598	260.93829	164.44719	-528.15778	303.94531	146.19406	-164.00981	142.02834	1332.60107	-773.61127	11.76015	522.82184	-623.83002	-80.58744	157.98082	-563.07050	-38.89248	162.53418	-517.89764	-73.14607	142.55914	-605.55273	17.59465	166.76106	-677.71216	51.58753	163.44240	-798.98181	174.97009	181.87526	-775.43463	-6.22597	993.49396	-797.95294	50.06603	173.27341				-856.58319	-43.75079	466.49936	-773.70361	-13.91803	200.13895	-875.93359	-78.96604	141.13327	-666.22290	-70.21909	159.75607	-833.98120	-32.72810	554.46100										-840.19940	-72.05740	839.50464				-833.61572	-36.19740	601.69067	
331	6.600	-874.34961	286.85776	725.80212				-843.77936	284.45221	858.46082	-778.81122	219.31302	805.67688	-729.62390	69.99509	221.32506	-770.40491	-10.83908	792.82581	-866.21930	251.56065	616.44519	-389.08688	289.30014	1151.90906	-956.18378	91.95209	1084.01428	-849.83704	246.54349	559.04095	-870.13342	256.27313	479.57870	-783.79785	207.65291	532.88977	-357.07382	-28.01093	1148.30847	-720.98132	159.04193	223.38167	-777.58057	226.45248	200.23395	-882.55048	295.99429	144.53252	-676.84222	177.64548	162.91643	-597.17963	226.66090	173.75235	-667.28986	302.25278	156.78470	-629.26349	309.78925	160.08475	-562.33484	260.72403	164.45346	-528.14966	304.01508	146.29074	-161.52264	142.44907	1329.02271	-773.20270	11.60134	522.88770	-623.87592	-80.51316	157.99860	-563.16650	-38.92313	162.47832	-517.82715	-72.87961	142.35971	-605.66125	17.53396	166.80623	-677.71216	51.58753	163.44240	-798.98749	174.92146	181.89330	-774.95355	-5.97040	993.02893	-797.95294	50.06603	173.27341				-856.43542	-43.87577	466.66705	-773.43860	-14.07089	200.44998	-875.65533	-78.94249	141.29453	-666.15680	-70.21258	159.61311	-833.61481	-32.92514	554.58466										-839.75269	-72.53550	839.84253				-833.73273	-35.45201	601.25360	
332	6.620	-874.13031	286.51340	725.96680				-842.91406	284.01611	858.40686	-778.07214	219.31352	805.61542	-729.62390	69.99509	221.32506	-769.58398	-11.24022	792.98761	-865.74738	251.24379	616.17987	-387.37231	289.17316	1149.25684	-955.04675	92.09169	1084.09656	-849.23529	246.16478	558.93494	-869.79541	256.48172	479.98056	-783.66028	207.53700	532.68164	-354.97934	-28.24706	1146.11353	-720.98132	159.04193	223.38167	-777.48883	226.63358	200.21817	-882.76111	296.21701	144.56276	-676.78436	177.38333	163.06151	-597.27557	226.56580	173.65538	-667.42737	302.02295	156.93474	-629.26349	309.78925	160.08475	-562.41943	260.76215	164.63306	-527.90558	303.81784	146.18936	-159.28668	142.10623	1325.66553	-773.02423	11.70440	522.99255	-623.85822	-80.45869	158.05457	-563.32263	-39.06323	162.55499	-517.75238	-72.77941	142.33438	-605.53271	17.50623	166.75003	-677.72205	51.60750	163.41942	-799.10919	174.98616	181.77774	-773.51947	-6.35275	993.36035	-798.12146	50.11765	173.41034				-856.17542	-43.96003	467.00046	-773.72217	-14.01931	200.22189	-875.99457	-78.94872	141.12155	-666.31866	-70.29446	159.75056	-833.31250	-33.02667	554.51288										-839.16937	-72.45022	839.73096				-833.29761	-35.41120	601.50372	
333	6.640	-873.79309	286.42279	725.74908				-841.97504	283.91547	858.67688	-777.36548	219.24376	805.50568	-729.62390	69.99509	221.32506	-768.92224	-11.12040	792.96851	-865.18323	251.27092	616.44153				-953.81238	91.47616	1084.77942	-848.71448	246.13683	559.09259	-869.73444	256.32904	479.94757	-783.32593	207.51695	532.59167	-354.00372	-28.36439	1144.28113	-721.12378	159.12001	223.23546	-777.41071	226.69228	200.35730	-882.68542	295.89551	144.40874	-676.97321	177.59421	162.70938	-597.04584	226.39226	173.66348	-667.31384	302.23886	156.99861	-629.10614	309.83179	160.16101	-562.41779	260.66122	164.50418	-528.10931	303.87466	146.01083	-157.30544	142.57947	1322.12317	-772.30420	11.52656	522.75421	-623.87592	-80.51316	157.99860	-563.20410	-39.00792	162.54755	-517.89923	-72.87533	142.47949	-605.56824	17.58054	166.98317	-677.67621	51.68813	163.26433	-799.03503	174.90594	181.82849	-772.74902	-6.19549	993.18518	-798.12311	50.14825	173.41446				-855.81995	-44.12073	467.05359	-773.51508	-13.86035	200.62975	-875.93195	-78.89499	141.20357	-666.22290	-70.21909	159.75607	-832.78461	-33.00658	554.67822										-838.34760	-72.81092	840.02008				-832.57788	-35.30331	601.56818	
